<svg xmlns="http://www.w3.org/2000/svg" width="20" height="28" viewBox="0 0 40 55" fill="none">
  <path d="M39.7222 39.8262C39.7287 43.379 35.9602 45.6009 32.9506 43.8188L13.1882 32.1166C11.7996 31.2943 10.9436 29.7803 10.9406 28.1411L10.8982 4.81183C10.8917 1.25903 14.6602 -0.962918 17.6698 0.819202L37.4322 12.5214C38.8208 13.3436 39.6768 14.8577 39.6797 16.4969L39.7222 39.8262Z" fill="#602CF0"/>
  <path d="M8.3134e-06 15.1738C-0.00645924 11.621 3.76202 9.3991 6.77163 11.1812L26.5341 22.8834C27.9226 23.7057 28.7786 25.2197 28.7816 26.8589L28.8241 50.1882C28.8305 53.741 25.062 55.9629 22.0524 54.1808L2.29001 42.4786C0.901419 41.6564 0.0454612 40.1423 0.0424771 38.5031L8.3134e-06 15.1738Z" fill="#28C79E"/>
</svg>